<?xml version="1.0" encoding="utf-8"?>
<!-- Generator: Adobe Illustrator 26.5.0, SVG Export Plug-In . SVG Version: 6.00 Build 0)  -->
<svg version="1.1" id="Camada_1" xmlns="http://www.w3.org/2000/svg" xmlns:xlink="http://www.w3.org/1999/xlink" x="0px" y="0px"
	 viewBox="0 0 128 128" style="enable-background:new 0 0 128 128;" xml:space="preserve">
<style type="text/css">
	.st0{fill:#FFFFFF;}
</style>
<path class="st0" d="M0,51.1v25.8h4.4V56.6l16.3,20.3h27.7v-4.1H30.6V66h14.4v-4.1H30.6v-6.6h17.9v-4.1H26.1v4.1h0v21.5L5.5,51.1H0z
	 M85.1,51.1v4.1h9v21.7h4.4V55.2h8.8v-4.1L85.1,51.1L85.1,51.1z M53.8,51.1l20.7,25.8h5.8L69.9,64l10.3-12.9l-5.8,0L67,60.4
	l-7.5-9.3L53.8,51.1L53.8,51.1z M123.9,65.7c-0.8,0-1.4,0.1-2.1,0.4c-0.6,0.3-1.1,0.6-1.4,1.1c-0.3,0.5-0.5,1-0.5,1.7
	c0,0.8,0.3,1.4,0.8,1.8c0.5,0.5,1.2,0.8,2.1,1l1.2,0.3c0.4,0.1,0.7,0.2,1,0.3c0.3,0.1,0.5,0.3,0.7,0.5c0.2,0.2,0.3,0.4,0.2,0.7
	c0,0.3-0.1,0.6-0.3,0.8c-0.2,0.2-0.5,0.4-0.8,0.5c-0.4,0.1-0.7,0.2-1.1,0.2c-0.4,0-0.8-0.1-1.1-0.2c-0.3-0.1-0.6-0.3-0.8-0.6
	c-0.2-0.3-0.3-0.6-0.4-0.9h-1.9c0,0.7,0.2,1.3,0.6,1.8s0.8,0.9,1.5,1.1c0.6,0.3,1.4,0.4,2.2,0.4c0.9,0,1.6-0.1,2.2-0.4
	c0.6-0.3,1.1-0.6,1.4-1.1c0.3-0.5,0.5-1,0.5-1.7c0-0.5-0.1-0.9-0.3-1.2c-0.2-0.3-0.4-0.6-0.7-0.9c-0.3-0.2-0.7-0.5-1-0.6
	c-0.4-0.2-0.8-0.3-1.2-0.4l-1-0.2c-0.2-0.1-0.4-0.1-0.7-0.2c-0.2-0.1-0.4-0.2-0.6-0.3c-0.2-0.1-0.3-0.2-0.4-0.4
	c-0.1-0.2-0.2-0.4-0.2-0.6c0-0.3,0.1-0.5,0.2-0.7c0.2-0.2,0.4-0.4,0.7-0.5c0.3-0.1,0.7-0.2,1.1-0.2c0.6,0,1.1,0.1,1.4,0.4
	c0.4,0.2,0.6,0.6,0.6,1.1h1.9c0-0.6-0.2-1.1-0.5-1.6c-0.3-0.5-0.8-0.8-1.4-1.1C125.4,65.8,124.7,65.7,123.9,65.7L123.9,65.7z
	 M115.9,65.9v7.6c0,0.4-0.1,0.7-0.2,1c-0.1,0.2-0.3,0.4-0.5,0.6c-0.2,0.1-0.5,0.2-0.8,0.2c-0.3,0-0.5-0.1-0.8-0.2
	c-0.2-0.1-0.4-0.3-0.5-0.5c-0.1-0.2-0.2-0.5-0.2-0.8h-2c0,0.7,0.1,1.2,0.4,1.7c0.3,0.4,0.7,0.8,1.2,1c0.5,0.2,1.1,0.3,1.7,0.3
	c0.7,0,1.3-0.1,1.8-0.4c0.5-0.3,0.9-0.7,1.2-1.1c0.3-0.5,0.4-1.1,0.4-1.8v-7.5L115.9,65.9L115.9,65.9z M62.6,65.9l-8.8,11h5.8
	l5.9-7.4C65.5,69.5,62.6,65.9,62.6,65.9z M108.4,74.4c-0.3,0-0.6,0.1-0.8,0.3c-0.2,0.2-0.3,0.5-0.3,0.8c0,0.3,0.1,0.6,0.3,0.8
	c0.2,0.2,0.5,0.3,0.8,0.3c0.2,0,0.4-0.1,0.6-0.2c0.2-0.1,0.3-0.2,0.4-0.4c0.1-0.2,0.2-0.4,0.2-0.6c0-0.3-0.1-0.6-0.4-0.8
	C109,74.5,108.7,74.4,108.4,74.4z"/>
</svg>
